# xmcd
#
# Track frame offsets: 
#        150
#        13907
#        32112
#        54314
#        77328
#        99126
#        124527
#        141763
#        165160
#        189929
#        222202
#
# Disc length: 3291 seconds
#
# Revision: 2
# Processed by: cddbd v1.5.2PL0 Copyright (c) Steve Scherf et al.
# Submitted via: ExactAudioCopy v1.3
#
DISCID=7b0cd90b
DTITLE=原田真二 - Shinji Harada 1992-1996 Columbia Years Complete  - Miracl
DTITLE=e Love [01 - Miracle Love]
DYEAR=2017
DGENRE=JPop
TTITLE0=Friday Night Club Special
TTITLE1=Go on a Journey
TTITLE2=She's Real Cool
TTITLE3=Melodies of Romances
TTITLE4=Lost Love
TTITLE5=Saturday Blue
TTITLE6=Whisper
TTITLE7=Healing the World
TTITLE8=Miracle Love (Album Version)
TTITLE9=Heart Aid
TTITLE10=Miracle Love (Single Version)
EXTD=Powerd by gracenote music web API
EXTT0=
EXTT1=
EXTT2=
EXTT3=
EXTT4=
EXTT5=
EXTT6=
EXTT7=
EXTT8=
EXTT9=
EXTT10=
PLAYORDER=
